<svg xmlns="http://www.w3.org/2000/svg" viewBox="0 0 1600 1040" font-family="'Inter','Segoe UI',system-ui,-apple-system,sans-serif">
  <defs>
    <radialGradient id="bg" cx="38%" cy="20%" r="120%">
      <stop offset="0%" stop-color="#0E1B1E"/>
      <stop offset="55%" stop-color="#0A1416"/>
      <stop offset="100%" stop-color="#06090A"/>
    </radialGradient>
    <linearGradient id="gSrc" x1="0" y1="0" x2="0" y2="1">
      <stop offset="0%" stop-color="#1B2A31"/><stop offset="100%" stop-color="#11191D"/>
    </linearGradient>
    <linearGradient id="gIng" x1="0" y1="0" x2="0" y2="1">
      <stop offset="0%" stop-color="#1E1B33"/><stop offset="100%" stop-color="#12101F"/>
    </linearGradient>
    <linearGradient id="gBrain" x1="0" y1="0" x2="0" y2="1">
      <stop offset="0%" stop-color="#0E2A2A"/><stop offset="100%" stop-color="#091819"/>
    </linearGradient>
    <linearGradient id="gGov" x1="0" y1="0" x2="0" y2="1">
      <stop offset="0%" stop-color="#241B0C"/><stop offset="100%" stop-color="#16100A"/>
    </linearGradient>
    <linearGradient id="gOps" x1="0" y1="0" x2="0" y2="1">
      <stop offset="0%" stop-color="#2A130F"/><stop offset="100%" stop-color="#190D0B"/>
    </linearGradient>
    <linearGradient id="gOut" x1="0" y1="0" x2="0" y2="1">
      <stop offset="0%" stop-color="#0E2620"/><stop offset="100%" stop-color="#091813"/>
    </linearGradient>
    <linearGradient id="titleAccent" x1="0" y1="0" x2="1" y2="0">
      <stop offset="0%" stop-color="#4FD0C5"/><stop offset="50%" stop-color="#E8B23A"/><stop offset="100%" stop-color="#FF5C49"/>
    </linearGradient>
    <filter id="shadow" x="-30%" y="-30%" width="160%" height="160%">
      <feDropShadow dx="0" dy="6" stdDeviation="10" flood-color="#000000" flood-opacity="0.55"/>
    </filter>
    <filter id="glow" x="-60%" y="-60%" width="220%" height="220%">
      <feGaussianBlur stdDeviation="6" result="b"/>
      <feMerge><feMergeNode in="b"/><feMergeNode in="SourceGraphic"/></feMerge>
    </filter>
    <pattern id="grid" width="40" height="40" patternUnits="userSpaceOnUse">
      <path d="M40 0H0V40" fill="none" stroke="#1a2a2e" stroke-width="1" opacity="0.35"/>
    </pattern>
    <marker id="aTeal" viewBox="0 0 10 10" refX="9" refY="5" markerWidth="7" markerHeight="7" orient="auto-start-reverse">
      <path d="M0 0L10 5L0 10z" fill="#4FD0C5"/>
    </marker>
    <marker id="aGold" viewBox="0 0 10 10" refX="9" refY="5" markerWidth="7" markerHeight="7" orient="auto-start-reverse">
      <path d="M0 0L10 5L0 10z" fill="#E8B23A"/>
    </marker>
    <marker id="aCoral" viewBox="0 0 10 10" refX="9" refY="5" markerWidth="7" markerHeight="7" orient="auto-start-reverse">
      <path d="M0 0L10 5L0 10z" fill="#FF5C49"/>
    </marker>
    <marker id="aMute" viewBox="0 0 10 10" refX="9" refY="5" markerWidth="7" markerHeight="7" orient="auto-start-reverse">
      <path d="M0 0L10 5L0 10z" fill="#6f8a86"/>
    </marker>
  </defs>

  <rect width="1600" height="1040" fill="url(#bg)"/>
  <rect width="1600" height="1040" fill="url(#grid)"/>

  <!-- ===== Title ===== -->
  <text x="64" y="62" fill="#F2F7F5" font-size="34" font-weight="800" letter-spacing="-0.5">Cognost</text>
  <text x="210" y="62" fill="#9DB4AE" font-size="22" font-weight="500">— a self-improving stakeholder-alignment Company Brain</text>
  <text x="64" y="92" fill="#6f8a86" font-size="15" font-weight="500">Two-tier memory on Cognee Cloud · ingest → query (cited, conflict-aware) → lint → self-improve</text>
  <rect x="64" y="106" width="430" height="4" rx="2" fill="url(#titleAccent)"/>

  <!-- ============================================================ -->
  <!-- GOVERNANCE BAND (top, feeds Operations)                      -->
  <!-- ============================================================ -->
  <g filter="url(#shadow)">
    <rect x="610" y="150" width="600" height="150" rx="16" fill="url(#gGov)" stroke="#E8B23A" stroke-width="1.6"/>
  </g>
  <rect x="610" y="150" width="600" height="5" rx="2.5" fill="#E8B23A"/>
  <circle cx="642" cy="186" r="15" fill="#E8B23A"/><text x="642" y="191" text-anchor="middle" fill="#16100A" font-size="15" font-weight="800">4</text>
  <text x="668" y="191" fill="#F0E5CB" font-size="19" font-weight="700">Governance — the maintainer contract</text>
  <g>
    <rect x="634" y="212" width="262" height="68" rx="10" fill="#0d0a05" stroke="#7a6228" stroke-width="1.2"/>
    <text x="650" y="236" fill="#E8B23A" font-size="14.5" font-weight="700">CLAUDE.md schema</text>
    <text x="650" y="257" fill="#cdbd97" font-size="12.5">provenance · preserve-conflict</text>
    <text x="650" y="273" fill="#cdbd97" font-size="12.5">current-vs-superseded · no auto-resolve</text>
  </g>
  <line x1="896" y1="246" x2="930" y2="246" stroke="#E8B23A" stroke-width="2" marker-end="url(#aGold)"/>
  <g>
    <rect x="930" y="212" width="262" height="68" rx="10" fill="#0d0a05" stroke="#7a6228" stroke-width="1.2"/>
    <text x="946" y="236" fill="#E8B23A" font-size="14.5" font-weight="700">wiki-maintainer skill</text>
    <text x="946" y="257" fill="#cdbd97" font-size="12.5">loaded as the recall</text>
    <text x="946" y="273" fill="#cdbd97" font-size="12.5">system_prompt</text>
  </g>

  <!-- ============================================================ -->
  <!-- MAIN PIPELINE ROW                                            -->
  <!-- ============================================================ -->

  <!-- (1) SOURCES -->
  <g filter="url(#shadow)">
    <rect x="50" y="400" width="250" height="320" rx="16" fill="url(#gSrc)" stroke="#5B7A88" stroke-width="1.4"/>
  </g>
  <rect x="50" y="400" width="250" height="5" rx="2.5" fill="#7FA8B8"/>
  <circle cx="82" cy="436" r="15" fill="#7FA8B8"/><text x="82" y="441" text-anchor="middle" fill="#0A1416" font-size="15" font-weight="800">1</text>
  <text x="108" y="435" fill="#DCE7E4" font-size="18" font-weight="700">Sources</text>
  <text x="108" y="454" fill="#8FA6A0" font-size="12.5">42 docs · multi-format</text>
  <g font-size="12.5" fill="#cfe0dc">
    <rect x="70" y="476" width="210" height="44" rx="8" fill="#0e171b" stroke="#3c5560"/>
    <text x="84" y="495" font-weight="700" fill="#aecbd6">Product &amp; Eng</text>
    <text x="84" y="512">PRD · ADRs · Roadmap · Decisions</text>
    <rect x="70" y="528" width="210" height="44" rx="8" fill="#0e171b" stroke="#3c5560"/>
    <text x="84" y="547" font-weight="700" fill="#aecbd6">GTM &amp; Ops</text>
    <text x="84" y="564">OKRs · Sales · GTM · Design · RACI</text>
    <rect x="70" y="580" width="210" height="44" rx="8" fill="#0e171b" stroke="#3c5560"/>
    <text x="84" y="599" font-weight="700" fill="#aecbd6">Operational hay (30)</text>
    <text x="84" y="616">Standups · Retros · QA · Support</text>
    <rect x="70" y="632" width="210" height="44" rx="8" fill="#0e171b" stroke="#3c5560"/>
    <text x="84" y="651" font-weight="700" fill="#aecbd6">Multi-format</text>
    <text x="84" y="668">.txt transcript · .json Slack · .csv</text>
  </g>

  <!-- arrow 1->2 -->
  <line x1="300" y1="560" x2="338" y2="560" stroke="#6f8a86" stroke-width="2.4" marker-end="url(#aMute)"/>

  <!-- (2) INGESTION -->
  <g filter="url(#shadow)">
    <rect x="338" y="430" width="214" height="260" rx="16" fill="url(#gIng)" stroke="#8B7BD8" stroke-width="1.4"/>
  </g>
  <rect x="338" y="430" width="214" height="5" rx="2.5" fill="#9D8DEA"/>
  <circle cx="370" cy="466" r="15" fill="#9D8DEA"/><text x="370" y="471" text-anchor="middle" fill="#12101F" font-size="15" font-weight="800">2</text>
  <text x="396" y="465" fill="#E4DEF7" font-size="18" font-weight="700">Ingestion</text>
  <text x="358" y="494" fill="#A99FD0" font-size="12.5">Cognee Cloud</text>
  <g>
    <rect x="358" y="510" width="174" height="60" rx="10" fill="#100e1c" stroke="#5a4f8a"/>
    <text x="372" y="533" fill="#bcb0ec" font-size="14" font-weight="700">remember()</text>
    <text x="372" y="553" fill="#9388c4" font-size="12">file upload</text>
  </g>
  <line x1="445" y1="570" x2="445" y2="592" stroke="#9D8DEA" stroke-width="2" marker-end="url(#aGold)" style="marker-end:url(#aMute)"/>
  <g>
    <rect x="358" y="600" width="174" height="72" rx="10" fill="#100e1c" stroke="#5a4f8a"/>
    <text x="372" y="623" fill="#bcb0ec" font-size="14" font-weight="700">cognify</text>
    <text x="372" y="643" fill="#9388c4" font-size="12">chunk → extract</text>
    <text x="372" y="660" fill="#9388c4" font-size="12">entities &amp; typed relations</text>
  </g>

  <!-- arrow 2->3 -->
  <line x1="552" y1="560" x2="588" y2="560" stroke="#6f8a86" stroke-width="2.4" marker-end="url(#aMute)"/>

  <!-- (3) THE BRAIN -->
  <g filter="url(#shadow)">
    <rect x="590" y="360" width="430" height="430" rx="18" fill="url(#gBrain)" stroke="#4FD0C5" stroke-width="2"/>
  </g>
  <rect x="590" y="360" width="430" height="5" rx="2.5" fill="#4FD0C5"/>
  <circle cx="622" cy="396" r="15" fill="#4FD0C5"/><text x="622" y="401" text-anchor="middle" fill="#091819" font-size="15" font-weight="800">3</text>
  <text x="648" y="395" fill="#DCE7E4" font-size="19" font-weight="700">The Brain</text>
  <text x="648" y="414" fill="#6FB8B0" font-size="12.5">Cognee Cloud · dataset: brainflow</text>

  <!-- knowledge graph motif -->
  <g stroke-width="1.6">
    <line x1="690" y1="470" x2="800" y2="452" stroke="#FF5C49"/>
    <line x1="800" y1="452" x2="905" y2="478" stroke="#6f8a86"/>
    <line x1="905" y1="478" x2="958" y2="540" stroke="#E8B23A"/>
    <line x1="690" y1="470" x2="700" y2="560" stroke="#6f8a86"/>
    <line x1="700" y1="560" x2="800" y2="452" stroke="#FF5C49"/>
    <line x1="800" y1="452" x2="820" y2="572" stroke="#6f8a86"/>
    <line x1="820" y1="572" x2="905" y2="478" stroke="#6f8a86"/>
    <line x1="700" y1="560" x2="820" y2="572" stroke="#6f8a86"/>
  </g>
  <g font-size="11" fill="#cdeae6" text-anchor="middle">
    <g><circle cx="690" cy="470" r="7" fill="#4FD0C5" filter="url(#glow)"/><text x="690" y="456">PRD</text></g>
    <g><circle cx="800" cy="452" r="7" fill="#4FD0C5"/><text x="800" y="438">Roadmap</text></g>
    <g><circle cx="905" cy="478" r="7" fill="#4FD0C5"/><text x="930" y="472">Decision Log</text></g>
    <g><circle cx="958" cy="540" r="7" fill="#4FD0C5"/><text x="958" y="528">ADR-0005</text></g>
    <g><circle cx="700" cy="560" r="7" fill="#4FD0C5"/><text x="688" y="582">Sales</text></g>
    <g><circle cx="820" cy="572" r="7" fill="#4FD0C5"/><text x="820" y="592">Design</text></g>
  </g>
  <!-- edge labels -->
  <text x="742" y="448" fill="#FF8A7C" font-size="10.5" font-weight="700" text-anchor="middle">contradicts</text>
  <text x="945" y="512" fill="#F0C868" font-size="10.5" font-weight="700" text-anchor="middle">supersedes</text>
  <text x="735" y="520" fill="#FF8A7C" font-size="10.5" font-weight="700" text-anchor="middle" transform="rotate(-38 735 520)">contradicts</text>

  <!-- two-tier memory pills -->
  <rect x="612" y="612" width="386" height="1" fill="#214b48"/>
  <g>
    <rect x="612" y="626" width="186" height="74" rx="11" fill="#0b1c1d" stroke="#2f6b65"/>
    <text x="628" y="650" fill="#8fd9d1" font-size="13.5" font-weight="700">Session memory</text>
    <text x="628" y="669" fill="#6aa39d" font-size="11.5">ephemeral · per session_id</text>
    <text x="628" y="686" fill="#6aa39d" font-size="11.5">scored Q&amp;A + feedback</text>
  </g>
  <g>
    <rect x="812" y="626" width="186" height="74" rx="11" fill="#0b1c1d" stroke="#4FD0C5"/>
    <text x="828" y="650" fill="#9af0e6" font-size="13.5" font-weight="700">Permanent graph</text>
    <text x="828" y="669" fill="#79c2bb" font-size="11.5">durable · typed edges</text>
    <text x="828" y="686" fill="#79c2bb" font-size="11.5">register + summaries + wiki</text>
  </g>
  <text x="640" y="730" fill="#5f807b" font-size="11.5">typed edges:</text>
  <text x="722" y="730" fill="#FF8A7C" font-size="11.5" font-weight="700">contradicts</text>
  <text x="800" y="730" fill="#F0C868" font-size="11.5" font-weight="700">· supersedes</text>
  <text x="893" y="730" fill="#8fd9d1" font-size="11.5" font-weight="700">· owned_by · cites</text>

  <!-- arrow 3->4 -->
  <line x1="1020" y1="540" x2="1058" y2="540" stroke="#4FD0C5" stroke-width="2.4" marker-end="url(#aTeal)"/>

  <!-- (5) OPERATIONS -->
  <g filter="url(#shadow)">
    <rect x="1060" y="400" width="246" height="320" rx="16" fill="url(#gOps)" stroke="#FF5C49" stroke-width="1.6"/>
  </g>
  <rect x="1060" y="400" width="246" height="5" rx="2.5" fill="#FF5C49"/>
  <circle cx="1092" cy="436" r="15" fill="#FF5C49"/><text x="1092" y="441" text-anchor="middle" fill="#190D0B" font-size="15" font-weight="800">5</text>
  <text x="1118" y="441" fill="#F4DAD5" font-size="18" font-weight="700">Operations</text>
  <g>
    <rect x="1080" y="466" width="206" height="70" rx="10" fill="#1a0d0b" stroke="#7a322a"/>
    <text x="1096" y="490" fill="#ff9488" font-size="14" font-weight="700">Query / Recall</text>
    <text x="1096" y="509" fill="#d79a92" font-size="11.5">GRAPH_COMPLETION</text>
    <text x="1096" y="526" fill="#d79a92" font-size="11.5">cited, conflict-aware answers</text>
    <rect x="1080" y="544" width="206" height="70" rx="10" fill="#1a0d0b" stroke="#7a322a"/>
    <text x="1096" y="568" fill="#ff9488" font-size="14" font-weight="700">Lint</text>
    <text x="1096" y="587" fill="#d79a92" font-size="11.5">contradictions · supersessions</text>
    <text x="1096" y="604" fill="#d79a92" font-size="11.5">orphans · metric drift</text>
    <rect x="1080" y="622" width="206" height="80" rx="10" fill="#1a0d0b" stroke="#FF5C49"/>
    <text x="1096" y="646" fill="#ff9488" font-size="14" font-weight="700">Self-improve</text>
    <text x="1096" y="665" fill="#d79a92" font-size="11.5">score → diagnose</text>
    <text x="1096" y="682" fill="#d79a92" font-size="11.5">propose → apply (explicit)</text>
  </g>

  <!-- governance -> query (skill as system prompt) -->
  <path d="M1183 300 C1183 350 1183 360 1183 462" fill="none" stroke="#E8B23A" stroke-width="2" stroke-dasharray="2 6" marker-end="url(#aGold)"/>
  <text x="1196" y="356" fill="#E8B23A" font-size="11.5" font-weight="600">skill = system_prompt</text>

  <!-- arrow 5->6 -->
  <line x1="1306" y1="540" x2="1344" y2="540" stroke="#FF5C49" stroke-width="2.4" marker-end="url(#aCoral)"/>

  <!-- (6) OUTPUTS -->
  <g filter="url(#shadow)">
    <rect x="1346" y="430" width="204" height="260" rx="16" fill="url(#gOut)" stroke="#5BD18A" stroke-width="1.4"/>
  </g>
  <rect x="1346" y="430" width="204" height="5" rx="2.5" fill="#5BD18A"/>
  <circle cx="1378" cy="466" r="15" fill="#5BD18A"/><text x="1378" y="471" text-anchor="middle" fill="#091813" font-size="15" font-weight="800">6</text>
  <text x="1404" y="471" fill="#D7F0E0" font-size="18" font-weight="700">Outputs</text>
  <g font-size="12" fill="#bfe6cf">
    <rect x="1364" y="496" width="170" height="40" rx="8" fill="#0c1c15" stroke="#2f6b48"/>
    <text x="1378" y="521">Cited answers</text>
    <rect x="1364" y="544" width="170" height="40" rx="8" fill="#0c1c15" stroke="#2f6b48"/>
    <text x="1378" y="569">Contradiction register</text>
    <rect x="1364" y="592" width="170" height="40" rx="8" fill="#0c1c15" stroke="#2f6b48"/>
    <text x="1378" y="617">Diagnostic · 0 → 6</text>
    <rect x="1364" y="640" width="170" height="40" rx="8" fill="#0c1c15" stroke="#2f6b48"/>
    <text x="1378" y="665">State snapshots (JSON)</text>
  </g>

  <!-- ============================================================ -->
  <!-- SELF-IMPROVEMENT FEEDBACK LOOP (bottom)                      -->
  <!-- ============================================================ -->
  <!-- ops self-improve -> distil back into the permanent graph (bottom lane) -->
  <path d="M1160 702 L1160 900 Q1160 920 1140 920 L825 920 Q805 920 805 900 L805 794"
        fill="none" stroke="#4FD0C5" stroke-width="2.4" stroke-dasharray="7 6" marker-end="url(#aTeal)"/>
  <rect x="838" y="903" width="318" height="34" rx="8" fill="#0b1c1d" stroke="#2f6b65"/>
  <text x="997" y="925" text-anchor="middle" fill="#8fd9d1" font-size="13" font-weight="600">cognee.improve(session_ids) — distil session → graph</text>

  <!-- ops self-improve -> learned policies -> governance (clears Outputs on the right) -->
  <path d="M1210 702 L1210 728 Q1210 740 1230 740 L1556 740 Q1576 740 1576 720 L1576 270 Q1576 250 1556 250 L1216 250"
        fill="none" stroke="#E8B23A" stroke-width="2.2" stroke-dasharray="7 6" marker-end="url(#aGold)"/>
  <rect x="1364" y="300" width="196" height="50" rx="8" fill="#0d0a05" stroke="#7a6228"/>
  <text x="1462" y="321" text-anchor="middle" fill="#E8B23A" font-size="12.5" font-weight="700">learned policies</text>
  <text x="1462" y="338" text-anchor="middle" fill="#cdbd97" font-size="11">→ rewrite the skill</text>

  <!-- ============================================================ -->
  <!-- LEGEND                                                       -->
  <!-- ============================================================ -->
  <g transform="translate(64,150)">
    <rect x="0" y="0" width="300" height="190" rx="14" fill="#0b1518" stroke="#1f3338" stroke-width="1.2"/>
    <text x="18" y="30" fill="#cfe0dc" font-size="15" font-weight="700">Legend</text>
    <g font-size="12.5" fill="#9DB4AE">
      <rect x="18" y="44" width="14" height="14" rx="3" fill="#4FD0C5"/><text x="42" y="56">Brain &amp; permanent memory</text>
      <rect x="18" y="68" width="14" height="14" rx="3" fill="#E8B23A"/><text x="42" y="80">Governance (CLAUDE.md → skill)</text>
      <rect x="18" y="92" width="14" height="14" rx="3" fill="#FF5C49"/><text x="42" y="104">Operations</text>
      <rect x="18" y="116" width="14" height="14" rx="3" fill="#5BD18A"/><text x="42" y="128">Outputs to stakeholders</text>
      <line x1="18" y1="150" x2="46" y2="150" stroke="#4FD0C5" stroke-width="2.4" stroke-dasharray="7 6"/>
      <text x="54" y="154">self-improvement feedback loop</text>
      <line x1="18" y1="172" x2="46" y2="172" stroke="#6f8a86" stroke-width="2.4"/>
      <text x="54" y="176">primary data flow</text>
    </g>
  </g>

  <text x="1536" y="1012" text-anchor="end" fill="#3f5b57" font-size="12">Cognee Cloud Hackathon · 2026 · github.com/kaiser-data/cognost</text>
</svg>
